<svg id="visual" viewBox="0 0 1440 900" width="1440" height="900" xmlns="http://www.w3.org/2000/svg" xmlns:xlink="http://www.w3.org/1999/xlink" version="1.1"><rect x="0" y="0" width="1440" height="900" fill="#001220"></rect><path d="M0 620L34.3 606.5C68.7 593 137.3 566 205.8 551.5C274.3 537 342.7 535 411.2 535.3C479.7 535.7 548.3 538.3 617 531.3C685.7 524.3 754.3 507.7 823 513.5C891.7 519.3 960.3 547.7 1028.8 568.5C1097.3 589.3 1165.7 602.7 1234.2 584C1302.7 565.3 1371.3 514.7 1405.7 489.3L1440 464L1440 901L1405.7 901C1371.3 901 1302.7 901 1234.2 901C1165.7 901 1097.3 901 1028.8 901C960.3 901 891.7 901 823 901C754.3 901 685.7 901 617 901C548.3 901 479.7 901 411.2 901C342.7 901 274.3 901 205.8 901C137.3 901 68.7 901 34.3 901L0 901Z" fill="#254f89"></path><path d="M0 572L34.3 587.3C68.7 602.7 137.3 633.3 205.8 634.7C274.3 636 342.7 608 411.2 599C479.7 590 548.3 600 617 591.7C685.7 583.3 754.3 556.7 823 568.5C891.7 580.3 960.3 630.7 1028.8 643C1097.3 655.3 1165.7 629.7 1234.2 611.5C1302.7 593.3 1371.3 582.7 1405.7 577.3L1440 572L1440 901L1405.7 901C1371.3 901 1302.7 901 1234.2 901C1165.7 901 1097.3 901 1028.8 901C960.3 901 891.7 901 823 901C754.3 901 685.7 901 617 901C548.3 901 479.7 901 411.2 901C342.7 901 274.3 901 205.8 901C137.3 901 68.7 901 34.3 901L0 901Z" fill="#193e68"></path><path d="M0 648L34.3 652.7C68.7 657.3 137.3 666.7 205.8 663C274.3 659.3 342.7 642.7 411.2 641.2C479.7 639.7 548.3 653.3 617 670.8C685.7 688.3 754.3 709.7 823 700C891.7 690.3 960.3 649.7 1028.8 631.3C1097.3 613 1165.7 617 1234.2 621.8C1302.7 626.7 1371.3 632.3 1405.7 635.2L1440 638L1440 901L1405.7 901C1371.3 901 1302.7 901 1234.2 901C1165.7 901 1097.3 901 1028.8 901C960.3 901 891.7 901 823 901C754.3 901 685.7 901 617 901C548.3 901 479.7 901 411.2 901C342.7 901 274.3 901 205.8 901C137.3 901 68.7 901 34.3 901L0 901Z" fill="#132d49"></path><path d="M0 746L34.3 746.2C68.7 746.3 137.3 746.7 205.8 750C274.3 753.3 342.7 759.7 411.2 760.2C479.7 760.7 548.3 755.3 617 759.8C685.7 764.3 754.3 778.7 823 770.8C891.7 763 960.3 733 1028.8 723.5C1097.3 714 1165.7 725 1234.2 736C1302.7 747 1371.3 758 1405.7 763.5L1440 769L1440 901L1405.7 901C1371.3 901 1302.7 901 1234.2 901C1165.7 901 1097.3 901 1028.8 901C960.3 901 891.7 901 823 901C754.3 901 685.7 901 617 901C548.3 901 479.7 901 411.2 901C342.7 901 274.3 901 205.8 901C137.3 901 68.7 901 34.3 901L0 901Z" fill="#0e1c2c"></path><path d="M0 782L34.3 794C68.7 806 137.3 830 205.8 833C274.3 836 342.7 818 411.2 807.2C479.7 796.3 548.3 792.7 617 789C685.7 785.3 754.3 781.7 823 784.8C891.7 788 960.3 798 1028.8 806.7C1097.3 815.3 1165.7 822.7 1234.2 830.2C1302.7 837.7 1371.3 845.3 1405.7 849.2L1440 853L1440 901L1405.7 901C1371.3 901 1302.7 901 1234.2 901C1165.7 901 1097.3 901 1028.8 901C960.3 901 891.7 901 823 901C754.3 901 685.7 901 617 901C548.3 901 479.7 901 411.2 901C342.7 901 274.3 901 205.8 901C137.3 901 68.7 901 34.3 901L0 901Z" fill="#020810"></path></svg>